<?xml version="1.0" encoding="UTF-8" standalone="no"?>
<svg
   width="233.658mm"
   height="59.455002mm"
   viewBox="10 10 898.74603 228.6887"
   id="svg2"
   version="1.1"
   sodipodi:docname="logo_blanco.svg"
   inkscape:version="1.2.2 (b0a8486541, 2022-12-01)"
   xml:space="preserve"
   inkscape:export-filename="logo_blanco.png"
   inkscape:export-xdpi="150"
   inkscape:export-ydpi="150"
   xmlns:inkscape="http://www.inkscape.org/namespaces/inkscape"
   xmlns:sodipodi="http://sodipodi.sourceforge.net/DTD/sodipodi-0.dtd"
   xmlns:xlink="http://www.w3.org/1999/xlink"
   xmlns="http://www.w3.org/2000/svg"
   xmlns:svg="http://www.w3.org/2000/svg"
   xmlns:rdf="http://www.w3.org/1999/02/22-rdf-syntax-ns#"
   xmlns:cc="http://creativecommons.org/ns#"
   xmlns:dc="http://purl.org/dc/elements/1.1/"><sodipodi:namedview
     id="namedview64"
     pagecolor="#cfcfbf"
     bordercolor="#000000"
     borderopacity="0.25"
     inkscape:showpageshadow="2"
     inkscape:pageopacity="0"
     inkscape:pagecheckerboard="false"
     inkscape:deskcolor="#d1d1d1"
     inkscape:document-units="mm"
     showgrid="false"
     inkscape:zoom="0.90509668"
     inkscape:cx="251.90679"
     inkscape:cy="62.976698"
     inkscape:window-width="1855"
     inkscape:window-height="1050"
     inkscape:window-x="1431"
     inkscape:window-y="30"
     inkscape:window-maximized="1"
     inkscape:current-layer="svg2"
     showguides="true" /><defs
     id="defs4"><linearGradient
       id="linearGradient4402"><stop
         style="stop-color:#fcb30f;stop-opacity:1"
         offset="0"
         id="stop4404" /><stop
         style="stop-color:#ffffff;stop-opacity:1"
         offset="1"
         id="stop4406" /></linearGradient><linearGradient
       id="linearGradient20879"><stop
         style="stop-color:#fcb30f;stop-opacity:1"
         offset="0"
         id="stop20881" /><stop
         style="stop-color:#ffffff;stop-opacity:1"
         offset="1"
         id="stop20883" /></linearGradient><linearGradient
       id="linearGradient4373"><stop
         style="stop-color:#000000;stop-opacity:1"
         offset="0"
         id="stop4375" /><stop
         id="stop4381"
         offset="0.15704283"
         style="stop-color:#fcb30f;stop-opacity:1" /><stop
         style="stop-color:#fcb30f;stop-opacity:1"
         offset="0.61229557"
         id="stop4383" /><stop
         style="stop-color:#fefff3;stop-opacity:1"
         offset="1"
         id="stop4377" /></linearGradient><linearGradient
       id="linearGradient4338"><stop
         style="stop-color:#000000;stop-opacity:1"
         offset="0"
         id="stop4340" /><stop
         id="stop4346"
         offset="0.63214022"
         style="stop-color:#000000;stop-opacity:1" /><stop
         style="stop-color:#333333;stop-opacity:1"
         offset="1"
         id="stop4342" /></linearGradient><radialGradient
       xlink:href="#linearGradient4338"
       id="radialGradient4344"
       cx="-267.51785"
       cy="245.92557"
       fx="-267.51785"
       fy="245.92557"
       r="8.0595293"
       gradientTransform="matrix(-0.96417949,0.32308916,-0.34164321,-0.94674673,-462.24113,546.1862)"
       gradientUnits="userSpaceOnUse" /><linearGradient
       xlink:href="#linearGradient4373"
       id="linearGradient4379"
       x1="-268.66077"
       y1="350.75507"
       x2="-292.76785"
       y2="380.39795"
       gradientUnits="userSpaceOnUse" /><radialGradient
       xlink:href="#linearGradient4338"
       id="radialGradient20772"
       gradientUnits="userSpaceOnUse"
       gradientTransform="matrix(-0.96417949,0.32308916,-0.34164321,-0.94674673,-177.91191,607.79996)"
       cx="-267.51785"
       cy="245.92557"
       fx="-267.51785"
       fy="245.92557"
       r="8.0595293" /><linearGradient
       xlink:href="#linearGradient20879"
       id="linearGradient20885"
       x1="293.95438"
       y1="366.46863"
       x2="293.44931"
       y2="398.28842"
       gradientUnits="userSpaceOnUse" /><radialGradient
       xlink:href="#linearGradient4338"
       id="radialGradient20933"
       gradientUnits="userSpaceOnUse"
       gradientTransform="matrix(-0.78726455,0.26592712,-0.27895593,-0.77924507,-793.44728,342.19644)"
       cx="-267.51785"
       cy="245.92557"
       fx="-267.51785"
       fy="245.92557"
       r="8.0595293" /><linearGradient
       xlink:href="#linearGradient4402"
       id="linearGradient4408"
       x1="939.15027"
       y1="382.62875"
       x2="939.02075"
       y2="397.54376"
       gradientUnits="userSpaceOnUse"
       gradientTransform="matrix(0.83605834,0.10063557,-0.10063557,0.83605834,-138.33871,-141.13091)" /><filter
       id="mask-powermask-path-effect518_inverse"
       inkscape:label="filtermask-powermask-path-effect518"
       style="color-interpolation-filters:sRGB"
       height="100"
       width="100"
       x="-50"
       y="-50"><feColorMatrix
         id="mask-powermask-path-effect518_primitive1"
         values="1"
         type="saturate"
         result="fbSourceGraphic" /><feColorMatrix
         id="mask-powermask-path-effect518_primitive2"
         values="-1 0 0 0 1 0 -1 0 0 1 0 0 -1 0 1 0 0 0 1 0 "
         in="fbSourceGraphic" /></filter><filter
       id="mask-powermask-path-effect523_inverse"
       inkscape:label="filtermask-powermask-path-effect523"
       style="color-interpolation-filters:sRGB"
       height="100"
       width="100"
       x="-50"
       y="-50"><feColorMatrix
         id="mask-powermask-path-effect523_primitive1"
         values="1"
         type="saturate"
         result="fbSourceGraphic" /><feColorMatrix
         id="mask-powermask-path-effect523_primitive2"
         values="-1 0 0 0 1 0 -1 0 0 1 0 0 -1 0 1 0 0 0 1 0 "
         in="fbSourceGraphic" /></filter><filter
       id="mask-powermask-path-effect528_inverse"
       inkscape:label="filtermask-powermask-path-effect528"
       style="color-interpolation-filters:sRGB"
       height="100"
       width="100"
       x="-50"
       y="-50"><feColorMatrix
         id="mask-powermask-path-effect528_primitive1"
         values="1"
         type="saturate"
         result="fbSourceGraphic" /><feColorMatrix
         id="mask-powermask-path-effect528_primitive2"
         values="-1 0 0 0 1 0 -1 0 0 1 0 0 -1 0 1 0 0 0 1 0 "
         in="fbSourceGraphic" /></filter><filter
       id="mask-powermask-path-effect533_inverse"
       inkscape:label="filtermask-powermask-path-effect533"
       style="color-interpolation-filters:sRGB"
       height="100"
       width="100"
       x="-50"
       y="-50"><feColorMatrix
         id="mask-powermask-path-effect533_primitive1"
         values="1"
         type="saturate"
         result="fbSourceGraphic" /><feColorMatrix
         id="mask-powermask-path-effect533_primitive2"
         values="-1 0 0 0 1 0 -1 0 0 1 0 0 -1 0 1 0 0 0 1 0 "
         in="fbSourceGraphic" /></filter><filter
       id="mask-powermask-path-effect538_inverse"
       inkscape:label="filtermask-powermask-path-effect538"
       style="color-interpolation-filters:sRGB"
       height="100"
       width="100"
       x="-50"
       y="-50"><feColorMatrix
         id="mask-powermask-path-effect538_primitive1"
         values="1"
         type="saturate"
         result="fbSourceGraphic" /><feColorMatrix
         id="mask-powermask-path-effect538_primitive2"
         values="-1 0 0 0 1 0 -1 0 0 1 0 0 -1 0 1 0 0 0 1 0 "
         in="fbSourceGraphic" /></filter><filter
       id="mask-powermask-path-effect543_inverse"
       inkscape:label="filtermask-powermask-path-effect543"
       style="color-interpolation-filters:sRGB"
       height="100"
       width="100"
       x="-50"
       y="-50"><feColorMatrix
         id="mask-powermask-path-effect543_primitive1"
         values="1"
         type="saturate"
         result="fbSourceGraphic" /><feColorMatrix
         id="mask-powermask-path-effect543_primitive2"
         values="-1 0 0 0 1 0 -1 0 0 1 0 0 -1 0 1 0 0 0 1 0 "
         in="fbSourceGraphic" /></filter><filter
       id="mask-powermask-path-effect548_inverse"
       inkscape:label="filtermask-powermask-path-effect548"
       style="color-interpolation-filters:sRGB"
       height="100"
       width="100"
       x="-50"
       y="-50"><feColorMatrix
         id="mask-powermask-path-effect548_primitive1"
         values="1"
         type="saturate"
         result="fbSourceGraphic" /><feColorMatrix
         id="mask-powermask-path-effect548_primitive2"
         values="-1 0 0 0 1 0 -1 0 0 1 0 0 -1 0 1 0 0 0 1 0 "
         in="fbSourceGraphic" /></filter><filter
       id="mask-powermask-path-effect553_inverse"
       inkscape:label="filtermask-powermask-path-effect553"
       style="color-interpolation-filters:sRGB"
       height="100"
       width="100"
       x="-50"
       y="-50"><feColorMatrix
         id="mask-powermask-path-effect553_primitive1"
         values="1"
         type="saturate"
         result="fbSourceGraphic" /><feColorMatrix
         id="mask-powermask-path-effect553_primitive2"
         values="-1 0 0 0 1 0 -1 0 0 1 0 0 -1 0 1 0 0 0 1 0 "
         in="fbSourceGraphic" /></filter><filter
       id="mask-powermask-path-effect558_inverse"
       inkscape:label="filtermask-powermask-path-effect558"
       style="color-interpolation-filters:sRGB"
       height="100"
       width="100"
       x="-50"
       y="-50"><feColorMatrix
         id="mask-powermask-path-effect558_primitive1"
         values="1"
         type="saturate"
         result="fbSourceGraphic" /><feColorMatrix
         id="mask-powermask-path-effect558_primitive2"
         values="-1 0 0 0 1 0 -1 0 0 1 0 0 -1 0 1 0 0 0 1 0 "
         in="fbSourceGraphic" /></filter><filter
       id="mask-powermask-path-effect563_inverse"
       inkscape:label="filtermask-powermask-path-effect563"
       style="color-interpolation-filters:sRGB"
       height="100"
       width="100"
       x="-50"
       y="-50"><feColorMatrix
         id="mask-powermask-path-effect563_primitive1"
         values="1"
         type="saturate"
         result="fbSourceGraphic" /><feColorMatrix
         id="mask-powermask-path-effect563_primitive2"
         values="-1 0 0 0 1 0 -1 0 0 1 0 0 -1 0 1 0 0 0 1 0 "
         in="fbSourceGraphic" /></filter><clipPath
       clipPathUnits="userSpaceOnUse"
       id="clipPath634"><ellipse
         style="fill:none;stroke:#000000;stroke-width:0.907027"
         id="ellipse636"
         cx="514.51166"
         cy="317.97095"
         rx="134.33"
         ry="186.38162" /></clipPath><inkscape:perspective
       sodipodi:type="inkscape:persp3d"
       inkscape:vp_x="0 : -566.32292 : 1"
       inkscape:vp_y="0 : 1085.5439 : 0"
       inkscape:vp_z="1389.4973 : -566.32292 : 1"
       inkscape:persp3d-origin="694.74857 : -682.11431 : 1"
       id="perspective25" /><polygon
       points="0,-9 1.735535,-3.6038755 7.0364833,-5.6114082 3.8997116,-0.89008374 8.7743512,2.0026884 3.1273259,2.4939592 3.9049537,8.1087198 0,4 -3.9049537,8.1087198 -3.1273259,2.4939592 -8.7743512,2.0026884 -3.8997116,-0.89008374 -7.0364833,-5.6114082 -1.735535,-3.6038755 "
       id="Star7" /><polygon
       points="8.5595086,-2.7811529 3.8042261,1.236068 5.2900673,7.2811529 0,4 -5.2900673,7.2811529 -3.8042261,1.236068 -8.5595086,-2.7811529 -2.351141,-3.236068 0,-9 2.351141,-3.236068 "
       id="Star5" /><clipPath
       clipPathUnits="userSpaceOnUse"
       id="clipPath1873"><circle
         style="fill:none;stroke:#000000;stroke-width:2.25511;stroke-dasharray:none"
         id="circle1875"
         cx="540.21399"
         cy="265.5321"
         r="160.20851" /></clipPath><clipPath
       clipPathUnits="userSpaceOnUse"
       id="clipPath1913"><circle
         style="fill:none;stroke:#000000;stroke-width:1.31215;stroke-dasharray:none"
         id="circle1915"
         cx="568.1875"
         cy="248.88057"
         r="93.218079" /></clipPath><clipPath
       clipPathUnits="userSpaceOnUse"
       id="clipPath2019"><circle
         style="fill:none;stroke:#000000;stroke-width:1.53676;stroke-dasharray:none"
         id="circle2021"
         cx="559.25403"
         cy="244.68541"
         r="109.1748" /></clipPath><clipPath
       clipPathUnits="userSpaceOnUse"
       id="clipPath845"><g
         id="g849"><circle
           style="fill:none;stroke:#000000;stroke-width:1.26511;stroke-dasharray:none"
           id="circle847"
           cx="165.03401"
           cy="226.94633"
           r="89.876221" /></g></clipPath><clipPath
       clipPathUnits="userSpaceOnUse"
       id="clipPath851"><g
         id="g855"><circle
           style="fill:none;stroke:#000000;stroke-width:1.26511;stroke-dasharray:none"
           id="circle853"
           cx="165.03401"
           cy="226.94633"
           r="89.876221" /></g></clipPath><clipPath
       clipPathUnits="userSpaceOnUse"
       id="clipPath857"><g
         id="g861"><circle
           style="fill:none;stroke:#000000;stroke-width:1.26511;stroke-dasharray:none"
           id="circle859"
           cx="165.03401"
           cy="226.94633"
           r="89.876221" /></g></clipPath><clipPath
       clipPathUnits="userSpaceOnUse"
       id="clipPath863"><g
         id="g867"
         transform="matrix(-0.96906546,-0.23858134,-0.24695473,0.97116088,-3.5712606e-8,2.1514713e-8)"><circle
           style="fill:none;stroke:#000000;stroke-width:1.26511;stroke-dasharray:none"
           id="circle865"
           cx="165.03401"
           cy="226.94633"
           r="89.876221" /></g></clipPath><clipPath
       clipPathUnits="userSpaceOnUse"
       id="clipPath869"><g
         id="g873"><circle
           style="fill:none;stroke:#000000;stroke-width:1.26511;stroke-dasharray:none"
           id="circle871"
           cx="165.03401"
           cy="226.94633"
           r="89.876221" /></g></clipPath></defs><metadata
     id="metadata7"><rdf:RDF><cc:Work
         rdf:about=""><dc:format>image/svg+xml</dc:format><dc:type
           rdf:resource="http://purl.org/dc/dcmitype/StillImage" /></cc:Work></rdf:RDF></metadata><g
     id="layer1"
     style="display:none;opacity:1"
     transform="translate(-244.41585,-187.91314)" /><g
     id="g2768"
     style="fill:#ffffff"
     transform="translate(-2.6575719e-6,-222.90032)"><g
       id="g2749"
       style="fill:#ffffff"><path
         style="color:#000000;fill:#ffffff;stroke-width:0.0220865;-inkscape-stroke:none"
         d="m 122.95648,252.13231 -0.4759,1.47553 -1.0064,3.12058 -4.8292,-0.0106 3.9131,2.83 -1.5023,4.58965 3.9007,-2.8471 3.9007,2.8471 -1.5024,-4.58965 3.9132,-2.83 -4.8292,0.0106 z"
         id="path487" /><g
         id="g2737"
         style="fill:#ffffff"><path
           id="path2673"
           style="color:#000000;fill:#ffffff;-inkscape-stroke:none"
           d="m 120.78992,324.94367 c -0.20902,0 -0.41332,0.002 -0.61221,0.006 l -0.25443,0.006 -0.01,0.01 c -0.63214,0.0194 -1.23369,0.0505 -1.76309,0.10734 -0.60851,0.0653 -1.15086,0.15515 -1.63189,0.2584 -0.48058,0.10313 -0.90201,0.21818 -1.27212,0.34983 -0.36892,0.13123 -0.68268,0.27497 -0.95012,0.42537 -0.26907,0.15131 -0.49212,0.30984 -0.67184,0.47903 -0.1795,0.16897 -0.32143,0.34771 -0.41741,0.5645 -0.0939,0.21206 -0.13965,0.48036 -0.0576,0.73943 0.0837,0.26459 0.297,0.47366 0.52475,0.57444 0.54691,0.24191 1.37861,0.43081 2.49257,0.67581 1.11421,0.24507 2.47697,0.52106 3.92768,0.84278 1.45027,0.32165 2.98479,0.6882 4.43652,1.10715 0.72614,0.20957 1.43298,0.43185 2.09304,0.66786 0.66028,0.23609 1.27711,0.48729 1.82669,0.74936 1.93082,0.92071 3.71039,1.83961 5.36478,2.77283 1.65431,0.93317 3.18206,1.87983 4.60548,2.85432 1.4234,0.9745 2.74373,1.97671 3.98134,3.02129 1.23783,1.04479 2.39389,2.13216 3.49237,3.27771 1.0986,1.14559 2.13956,2.34783 3.14453,3.62555 1.00484,1.2775 1.97403,2.62983 2.92986,4.07079 0.9559,1.44095 1.8984,2.96991 2.84836,4.60349 0.95004,1.63368 1.90846,3.37391 2.89606,5.22961 0.15038,0.28254 0.26416,0.55399 0.34388,0.81694 0.0797,0.26273 0.1239,0.51476 0.14311,0.76924 0.0192,0.25458 0.0122,0.50828 -0.0239,0.76327 -0.0361,0.25542 -0.10161,0.51768 -0.19281,0.78713 -0.18197,0.53768 -0.473,1.10446 -0.86663,1.71339 -0.39239,0.60699 -0.88492,1.25579 -1.45499,1.94992 -0.002,0.003 -0.004,0.005 -0.006,0.008 -0.002,0.002 -0.005,0.004 -0.006,0.006 -1.26249,1.49235 -3.24525,3.70467 -4.96525,5.77026 -0.86277,1.03613 -1.76134,2.16496 -2.67543,3.40094 -0.91419,1.23613 -1.84376,2.5813 -2.76687,4.05489 -0.46078,0.73553 -0.9229,1.53369 -1.38144,2.38921 -0.45827,0.85498 -0.9137,1.76577 -1.36753,2.7291 -0.90786,1.9271 -1.80563,4.06229 -2.68538,6.3626 -0.87974,2.30033 -1.74134,4.76801 -2.57604,7.35843 -0.83471,2.59041 -1.63978,5.30453 -2.41107,8.09984 -0.77128,2.79527 -1.50905,5.66945 -2.19839,8.58484 -0.68934,2.91534 -1.33165,5.86981 -1.92011,8.81938 -0.58847,2.94972 -1.12345,5.89696 -1.59214,8.79553 -0.15782,0.97606 -0.25933,1.88718 -0.39754,2.81855 l -0.11528,0.77321 0.78116,-0.0497 c 0.45198,-0.0286 0.90412,-0.0599 1.35561,-0.0954 l 0.58239,-0.0477 v -0.52673 c 0.29713,-1.6829 0.59181,-3.3635 0.99981,-5.44628 0.55505,-2.83348 1.2088,-5.98868 1.93998,-9.31034 0.73116,-3.32159 1.5413,-6.81129 2.41505,-10.32606 0.87381,-3.51489 1.80805,-7.05215 2.79072,-10.46519 0.98263,-3.41289 2.01393,-6.70262 3.07098,-9.71782 0.52866,-1.50798 1.0642,-2.94818 1.60407,-4.29937 0.53992,-1.35132 1.0854,-2.61443 1.63189,-3.77264 0.5464,-1.158 1.0928,-2.20867 1.63786,-3.1326 0.54493,-0.92374 1.08828,-1.71973 1.61997,-2.36933 3.57742,-4.37073 6.01357,-7.61404 7.6049,-9.60055 0.002,-0.003 0.004,-0.003 0.006,-0.006 0.52791,-0.64225 0.99372,-1.17511 1.41922,-1.59413 0.42735,-0.42085 0.81588,-0.73115 1.18863,-0.9521 0.37171,-0.22031 0.72484,-0.35187 1.11709,-0.41941 0.39193,-0.0675 0.82772,-0.0681 1.34964,0.002 h 0.006 0.004 c 0.51001,0.0614 0.82971,0.14954 1.03161,0.2425 0.20239,0.0932 0.30105,0.17923 0.42735,0.3399 0.25267,0.3214 0.54198,1.00351 1.27411,1.93601 0.25744,0.3279 0.59791,0.55939 0.99186,0.76725 0.39521,0.20849 0.85148,0.3901 1.35362,0.56847 1.00512,0.35704 2.20843,0.70216 3.47448,1.13299 0.63365,0.21564 1.28208,0.45022 1.9221,0.71755 0.64064,0.26763 1.27534,0.56626 1.88433,0.90639 0.60864,0.33994 1.19139,0.72224 1.72929,1.15286 0.53769,0.43049 1.03251,0.91072 1.46493,1.45102 0.48418,0.60497 1.1081,1.29771 1.84259,2.07713 0.73489,0.77983 1.57799,1.64362 2.49058,2.58599 0.91237,0.94216 1.89393,1.96183 2.90799,3.04713 1.01386,1.08508 2.06014,2.23546 3.09483,3.43871 1.03491,1.20346 2.06087,2.45911 3.03719,3.75673 0.97637,1.29765 1.90307,2.63723 2.74103,4.00321 0.41881,0.68272 0.81495,1.37383 1.18466,2.06919 0.36933,0.69463 0.71105,1.39483 1.02168,2.099 0.15686,0.35559 0.29079,0.73448 0.44723,1.13696 l 0.42934,1.11112 0.67979,-0.97795 c 2.46391,-3.54742 4.6703,-7.26848 6.60311,-11.13107 l 0.14112,-0.28026 -0.14112,-0.28424 c -1.42688,-2.86357 -2.98491,-5.93512 -4.16024,-8.40793 -1.07142,-2.25426 -2.00743,-4.31059 -2.74699,-6.08234 -0.36991,-0.88617 -0.68877,-1.69873 -0.9521,-2.43094 -0.26016,-0.72344 -0.46279,-1.36427 -0.60426,-1.91216 -0.27838,-2.20593 -0.60135,-4.40751 -0.97993,-6.58125 -0.38175,-2.19193 -0.81961,-4.35594 -1.32182,-6.46794 -0.5022,-2.11203 -1.06956,-4.17473 -1.7114,-6.15986 -0.64188,-1.98517 -1.35944,-3.89215 -2.16062,-5.70268 -0.40036,-0.90475 -0.82143,-1.78811 -1.26616,-2.64164 -0.44453,-0.85311 -0.91063,-1.67663 -1.40132,-2.4707 -0.49093,-0.79448 -1.00645,-1.55832 -1.54642,-2.28784 -0.54012,-0.72968 -1.10544,-1.42659 -1.69749,-2.08508 -0.59183,-0.65824 -1.21153,-1.27763 -1.85849,-1.85849 -0.64693,-0.58092 -1.32203,-1.12226 -2.02546,-1.61799 -0.70364,-0.49582 -1.43585,-0.94767 -2.19839,-1.35162 -0.76089,-0.40309 -1.55117,-0.75704 -2.37131,-1.06143 l -0.006,-0.002 c -1.50944,-0.57676 -2.89519,-1.03028 -4.17813,-1.37747 -1.28473,-0.34767 -2.46582,-0.5875 -3.55995,-0.74538 -1.20412,-0.17377 -2.30422,-0.24652 -3.32541,-0.2425 -1.02057,0.004 -1.96297,0.0819 -2.84637,0.20672 -0.88336,0.12488 -1.70896,0.29769 -2.49853,0.48301 -0.79021,0.18548 -1.54262,0.3858 -2.28783,0.57245 -0.52014,0.13028 -1.08276,0.2354 -1.69749,0.31604 -0.61367,0.0805 -1.2807,0.13361 -2.00956,0.16101 -1.45712,0.0548 -3.16319,4.7e-4 -5.19582,-0.17492 -2.03268,-0.17539 -4.38973,-0.47036 -7.1537,-0.89446 -2.76411,-0.42412 -5.93414,-0.97503 -9.58664,-1.6637 -1.84238,-0.34739 -3.50213,-0.59623 -4.99308,-0.76327 -1.49088,-0.16704 -2.81283,-0.25326 -3.98333,-0.27629 -0.21926,-0.004 -0.433,-0.006 -0.64202,-0.006 z m 7.71025,5.48801 c 0.53161,-0.01 1.28488,0.0387 2.26398,0.16697 0.97904,0.12831 2.18395,0.33685 3.63748,0.63606 2.43318,0.50088 4.68021,1.05972 6.71243,1.63587 2.03236,0.5762 3.84914,1.16806 5.43236,1.72929 1.58295,0.56114 2.92956,1.09451 4.01513,1.5504 1.08543,0.4558 1.91275,0.83585 2.45083,1.09522 0.48171,0.23223 0.89438,0.51771 1.23833,0.83284 0.34389,0.31508 0.61531,0.65854 0.81098,1.0018 0.19659,0.34483 0.31716,0.68698 0.36374,0.9998 0.0468,0.3138 0.0222,0.59777 -0.0616,0.83483 -0.0415,0.11756 -0.0995,0.2267 -0.17292,0.32797 -0.0725,0.10007 -0.15995,0.19021 -0.27232,0.27629 -0.10985,0.0842 -0.24621,0.16362 -0.40946,0.23057 -0.16295,0.0668 -0.35138,0.12225 -0.57047,0.15902 -0.44056,0.074 -1.00396,0.0756 -1.69153,-0.0338 -0.68827,-0.10954 -1.49956,-0.33022 -2.4369,-0.69172 -0.97198,-0.37482 -1.90717,-0.76975 -2.80861,-1.17671 -0.90118,-0.40685 -1.77,-0.82687 -2.60586,-1.25026 -1.67122,-0.84651 -3.21473,-1.71009 -4.6512,-2.52635 -1.43657,-0.81636 -2.76726,-1.58491 -4.01116,-2.24411 -0.62241,-0.32984 -1.22183,-0.63243 -1.80482,-0.89843 -0.58317,-0.26608 -1.14787,-0.49611 -1.70147,-0.68178 -1.05236,-0.35296 -1.97383,-0.72135 -2.70922,-1.07137 -0.67788,-0.32263 -1.14874,-0.62269 -1.44704,-0.85868 0.13397,-0.017 0.22975,-0.0401 0.42934,-0.0437 z m 36.55761,5.89947 c 0.78922,-0.024 1.67413,0.0744 2.54425,0.28821 0.3705,0.091 0.73545,0.20206 1.08528,0.32996 0.34999,0.12771 0.68242,0.27269 0.99185,0.42934 0.30925,0.15726 0.59458,0.32589 0.84477,0.5009 v 0.002 c 0.24997,0.17439 0.46523,0.35353 0.64203,0.53071 0.17669,0.17775 0.31196,0.35064 0.40747,0.51084 0.0958,0.16017 0.15271,0.3064 0.17691,0.42934 v 0.002 c 0.0244,0.12256 0.0195,0.22195 -0.004,0.31604 -0.0574,0.2208 -0.24417,0.46182 -0.68973,0.6778 -0.44609,0.21712 -1.11293,0.36738 -1.90222,0.39158 -0.78875,0.0238 -1.67084,-0.0747 -2.54026,-0.28822 -0.87037,-0.21418 -1.6957,-0.53624 -2.37927,-0.92229 h -0.002 c -0.68324,-0.38522 -1.19664,-0.82353 -1.4848,-1.21845 -0.28778,-0.39481 -0.33643,-0.68701 -0.28027,-0.90838 0.0561,-0.221 0.24404,-0.46331 0.68774,-0.67979 0.44686,-0.21664 1.11328,-0.3678 1.90222,-0.39157 z m 17.88723,3.19223 c 0.0155,-1.1e-4 0.0417,0.004 0.0815,0.0139 0.0968,0.0248 0.26466,0.10289 0.48897,0.29816 0.22206,0.1933 0.49644,0.49774 0.80104,0.91831 0.71026,1.04029 1.53011,2.20701 2.25404,3.43871 0.36214,0.61615 0.69938,1.25013 0.98788,1.88632 0.28839,0.63592 0.5259,1.27418 0.69172,1.90818 0.16578,0.63384 0.25963,1.2603 0.26039,1.87042 3.8e-4,0.30579 -0.0218,0.60726 -0.0696,0.9044 -0.0477,0.29688 -0.12293,0.59065 -0.22461,0.88253 -0.10134,0.29089 -0.2309,0.57989 -0.39356,0.86663 -0.16231,0.28611 -0.35757,0.57029 -0.59035,0.85272 -0.23313,0.28287 -0.50163,0.56292 -0.81296,0.83881 -0.31287,0.27724 -0.66602,0.55145 -1.0654,0.81893 -1.48106,0.99195 -2.82403,1.84512 -4.0211,2.57008 -1.19674,0.72478 -2.24714,1.32031 -3.14851,1.79687 -0.54365,0.28744 -0.92021,0.44783 -1.35163,0.64998 0.007,-0.005 0.007,-0.007 0.0139,-0.0119 0.67247,-0.45046 1.52392,-0.97368 2.55219,-1.56033 0.36417,-0.20792 0.42214,-0.41213 0.57047,-0.68576 0.14943,-0.27565 0.30082,-0.62191 0.46114,-1.04552 0.3203,-0.84627 0.66694,-1.99205 0.97,-3.36516 0.15146,-0.68621 0.29146,-1.42951 0.41344,-2.21827 0.12199,-0.78877 0.22536,-1.62257 0.30014,-2.49256 0.0748,-0.87003 0.12148,-1.7765 0.13119,-2.70724 0.0102,-0.9311 -0.0179,-1.88656 -0.0914,-2.85631 -0.034,-0.44912 -0.0327,-0.94717 0.008,-1.42517 0.0405,-0.47903 0.12078,-0.93832 0.23455,-1.30592 0.11387,-0.36787 0.27015,-0.63897 0.38363,-0.75134 0.0572,-0.0566 0.0941,-0.0733 0.12124,-0.0815 0.0152,-0.005 0.0277,-0.008 0.0437,-0.008 z" /><path
           id="path489"
           style="color:#000000;fill:#ffffff;-inkscape-stroke:none"
           d="m 112.56078,255.49025 c -46.833602,5.18123 -83.328002,44.94092 -83.328002,93.14319 0,51.71593 42.0077,93.7236 93.723602,93.7236 51.7159,0 93.7216,-42.00767 93.7216,-93.7236 0,-48.1606 -36.4315,-87.8928 -83.2067,-93.12928 a 10.648482,21.775558 0 0 1 0.1332,3.25186 10.648482,21.775558 0 0 1 -0.3459,4.46237 c 42.6898,5.08212 75.729,41.34401 75.729,85.41505 0,47.55842 -38.4728,86.02925 -86.0312,86.02925 -47.558402,0 -86.029202,-38.47083 -86.029202,-86.02925 0,-44.07104 33.0374,-80.33293 75.727002,-85.41505 a 10.648482,21.775558 0 0 1 -0.3459,-4.46237 10.648482,21.775558 0 0 1 0.2525,-3.26577 z" /><g
           id="g501"
           transform="translate(-42.077525,121.68692)"
           style="fill:#ffffff"><use
             transform="matrix(0.43389381,0,0,0.43389381,123.69927,196.91892)"
             id="use491"
             style="fill:#ffffff;fill-opacity:1;stroke-width:2.30471;stroke-dasharray:none"
             xlink:href="#Star7"
             x="0"
             y="0"
             width="30240"
             height="15120" /><use
             transform="matrix(0.43389381,0,0,0.43389381,110.03161,175.27847)"
             id="use493"
             style="fill:#ffffff;fill-opacity:1;stroke-width:2.30471;stroke-dasharray:none"
             xlink:href="#Star7"
             x="0"
             y="0"
             width="30240"
             height="15120" /><polygon
             points="-3.9049537,8.1087198 -3.1273259,2.4939592 -8.7743512,2.0026884 -3.8997116,-0.89008374 -7.0364833,-5.6114082 -1.735535,-3.6038755 0,-9 1.735535,-3.6038755 7.0364833,-5.6114082 3.8997116,-0.89008374 8.7743512,2.0026884 3.1273259,2.4939592 3.9049537,8.1087198 0,4 "
             id="polygon495"
             style="fill:#ffffff;fill-opacity:1;stroke-width:2.30471;stroke-dasharray:none"
             transform="matrix(0.43389381,0,0,0.43389381,123.69927,160.47184)" /><use
             transform="matrix(0.43389381,0,0,0.43389381,135.8483,171.63376)"
             id="use497"
             style="fill:#ffffff;fill-opacity:1;stroke-width:2.30471;stroke-dasharray:none"
             xlink:href="#Star7"
             x="0"
             y="0"
             width="30240"
             height="15120" /><use
             transform="matrix(0.25310472,0,0,0.25310472,129.16633,180.97332)"
             id="use499"
             style="fill:#ffffff;fill-opacity:1;stroke-width:3.95093;stroke-dasharray:none"
             xlink:href="#Star5"
             x="0"
             y="0"
             width="30240"
             height="15120" /></g></g></g><g
       aria-label="CEnIT"
       id="g515"
       style="font-weight:500;font-size:273.197px;font-family:'League Spartan';-inkscape-font-specification:'League Spartan, Medium';fill:#ffffff;stroke-width:21.5116"
       transform="translate(-143.48821,31.92686)"><path
         d="m 487.69974,383.24709 c -39.61356,0 -66.25027,-28.82228 -66.25027,-66.38687 0,-37.29139 26.63671,-66.11367 66.25027,-66.11367 21.17277,0 37.83778,7.51291 44.80431,13.11345 l 11.88407,-23.63154 c -8.33251,-7.23972 -29.64188,-16.66501 -58.05436,-16.66501 -53.27342,0 -94.66276,40.97955 -94.66276,93.70656 0,52.59043 41.52594,93.16018 94.66276,93.16018 28.41248,0 49.72185,-9.4253 58.05436,-16.66502 l -11.88407,-23.63154 c -6.96653,5.60054 -23.63154,13.11346 -44.80431,13.11346 z"
         id="path505"
         style="fill:#ffffff" /><path
         d="m 571.70795,226.84181 v 180.31001 h 108.7324 V 382.4275 h -81.2761 v -53.68321 h 79.77352 v -24.04134 h -79.77352 v -53.13681 h 81.2761 v -24.72433 z"
         id="path507"
         style="fill:#ffffff" /><path
         d="m 781.52328,291.7261 c -19.67018,0 -36.1986,13.11345 -38.52078,22.40215 V 295.00446 H 714.86321 V 407.15182 H 743.0025 V 345.6825 c 0,-18.85059 14.88924,-32.92024 30.32487,-32.92024 15.29903,0 26.09031,9.2887 26.09031,30.05167 v 64.33789 h 28.27589 v -69.66523 c 0,-32.37384 -23.90474,-45.76049 -46.17029,-45.76049 z"
         id="path509"
         style="fill:#ffffff" /><path
         d="M 859.65781,226.84181 V 407.15182 H 887.2507 V 226.84181 Z"
         id="path511"
         style="fill:#ffffff" /><path
         d="m 958.14557,251.56614 v 155.58568 h 27.5929 V 251.56614 h 47.26303 V 226.84181 H 910.88249 v 24.72433 z"
         id="path513"
         style="fill:#ffffff" /></g></g></svg>
