<?xml version="1.0" encoding="UTF-8" standalone="no"?>
<!-- Generator: Adobe Illustrator 21.0.2, SVG Export Plug-In . SVG Version: 6.00 Build 0)  -->

<svg
   version="1.1"
   id="Capa_1"
   x="0px"
   y="0px"
   viewBox="0 0 420.79999 212.5"
   xml:space="preserve"
   sodipodi:docname="lapisa-agricola-logo.svg"
   width="420.79999"
   height="212.5"
   inkscape:version="1.2.2 (b0a8486541, 2022-12-01)"
   xmlns:inkscape="http://www.inkscape.org/namespaces/inkscape"
   xmlns:sodipodi="http://sodipodi.sourceforge.net/DTD/sodipodi-0.dtd"
   xmlns="http://www.w3.org/2000/svg"
   xmlns:svg="http://www.w3.org/2000/svg"><defs
   id="defs100" /><sodipodi:namedview
   id="namedview98"
   pagecolor="#ffffff"
   bordercolor="#000000"
   borderopacity="0.25"
   inkscape:showpageshadow="2"
   inkscape:pageopacity="0.0"
   inkscape:pagecheckerboard="0"
   inkscape:deskcolor="#d1d1d1"
   showgrid="false"
   inkscape:zoom="0.78145695"
   inkscape:cx="202.18644"
   inkscape:cy="120.92797"
   inkscape:window-width="1240"
   inkscape:window-height="962"
   inkscape:window-x="40"
   inkscape:window-y="30"
   inkscape:window-maximized="1"
   inkscape:current-layer="Capa_1" />
<style
   type="text/css"
   id="style2">
	.st0{fill:#4E8C68;}
</style>
<g
   id="g95"
   transform="translate(-46.8,-31)">
	<g
   id="g47">
		<g
   id="g10">
			<g
   id="g8">
				<polygon
   id="XMLID_61_"
   class="st0"
   points="467,120.3 432.6,155 432.6,194.9 467,160.5 " />
				<polygon
   id="XMLID_60_"
   class="st0"
   points="376.2,77 421.6,31.5 421.6,205.9 376.2,160.5 " />
				<polygon
   id="XMLID_59_"
   class="st0"
   points="432.6,42.6 432.6,89.6 456.2,66.2 " />
				<polygon
   id="XMLID_58_"
   class="st0"
   points="467,76.9 463.9,73.8 432.6,105.3 432.6,139.3 467,104.8 " />
			</g>
		</g>
		<path
   d="m 209.5,180.6 h 3.3 l 10.3,24.8 h -2.7 l -4.5,-11.2 h -10.5 l -5.2,11.2 h -2.8 z m 5.7,11.9 -4.2,-10.1 h -0.1 l -4.8,10.1 z"
   id="path12" />
		<path
   d="m 247,191.6 v 13 c -3.1,0.7 -6.3,1.3 -10.5,1.3 -9.7,0 -13.6,-6.3 -13.6,-12.2 0,-9.2 5.7,-13.4 13.6,-13.4 3.8,0 6.5,0.4 9.1,1 l 0.4,2.3 c -2.8,-0.9 -5.6,-1.5 -9.5,-1.5 -3.6,0 -11,1.1 -11,11.6 0,5.9 3.8,10.4 11,10.4 3.4,0 5.8,-0.4 8,-1.1 v -9.5 h -6.3 v -1.8 h 8.8 z"
   id="path14" />
		<path
   d="m 250.8,180.6 h 9 c 5.3,0 7.2,3.1 7.2,5.6 0,4.6 -2.7,7.1 -8.4,7.3 l 9,11.9 h -3.2 l -9.5,-13.5 c 0.8,0.1 1.8,0.3 2.7,0.3 5.8,0 6.9,-3.5 6.9,-5.6 0,-3.3 -2.8,-4.2 -5.1,-4.2 h -6.1 v 23 h -2.5 z"
   id="path16" />
		<path
   d="m 270.8,180.6 h 2.5 v 24.8 h -2.5 z"
   id="path18" />
		<path
   d="m 298.1,205.1 c -2.1,0.4 -4.3,0.8 -6.9,0.8 -9.7,0 -13.6,-6.3 -13.6,-12.2 0,-9.2 5.7,-13.4 13.6,-13.4 2.3,0 4.4,0.2 6.5,0.7 l 0.4,2.3 c -2.2,-0.8 -4.4,-1.2 -6.9,-1.2 -3.6,0 -11,1.1 -11,11.6 0,5.9 3.8,10.4 11,10.4 2.6,0 5,-0.5 7.3,-1.2 z"
   id="path20" />
		<path
   d="m 327.7,193.6 c 0,6 -3.9,12.2 -13.6,12.2 -9.7,0 -13.6,-6.3 -13.6,-12.2 0,-9.2 5.7,-13.4 13.6,-13.4 7.9,0 13.6,4.2 13.6,13.4 z m -24.6,0 c 0,5.9 3.7,10.4 11,10.4 7.3,0 11,-4.5 11,-10.4 0,-10.6 -7.5,-11.6 -11,-11.6 -3.5,0 -11,1.1 -11,11.6 z"
   id="path22" />
		<path
   d="m 331.3,180.6 h 2.5 v 23 h 12.7 v 1.8 h -15.2 z"
   id="path24" />
		<path
   d="m 356.6,180.6 h 3.3 l 10.3,24.8 h -2.7 L 363,194.2 h -10.5 l -5.2,11.2 h -2.8 z m 5.7,11.9 -4.2,-10.1 H 358 l -4.8,10.1 z"
   id="path26" />
		<path
   d="M 52.4,91.5 H 69.2 V 154 h 35 v 11.8 H 52.4 Z"
   id="path28" />
		<path
   d="m 165.7,112.2 c 8.8,-1.7 17.7,-3.1 26.8,-3.1 6.9,0 32.3,0 32.3,30.5 0,13.2 -7,27.7 -23.7,27.7 -7.5,0 -15.1,-3.2 -19.5,-8.9 l -0.2,-0.2 V 191 h -15.6 v -78.8 z m 15.6,28.7 c 0,8 6,15.4 14.5,15.4 9.9,0 13.4,-10.5 13.4,-17.4 0,-11.5 -5.4,-18.9 -15.9,-18.9 -4,0 -8,1 -11.9,2.2 v 18.7 z"
   id="path30" />
		<path
   d="m 232.3,110.4 h 15.6 v 55.4 h -15.6 z"
   id="path32" />
		<path
   d="m 254.1,152.8 c 5.2,2.1 10.6,4.1 16.1,4.1 3.4,0 8.3,-1.4 8.3,-5.1 0,-8.5 -22.6,-14.6 -22.6,-28.8 0,-3.7 1.8,-14 20.7,-14 5.5,0 11,0.8 16.5,1.8 l 1.2,11.4 c -3.8,-1.6 -10.1,-2.9 -14.4,-2.9 -2.7,0 -7.2,0.8 -7.2,4.6 0,7.1 22.6,14.4 22.6,29.2 0,10.5 -12.2,14.1 -21.5,14.1 -6,0 -12.2,-1 -18,-2.4 z"
   id="path34" />
		<g
   id="g37">
			<path
   id="XMLID_41_"
   d="m 134.7,109.1 c -7.3,0 -14.5,1.1 -21.6,2.7 v 9.6 c 5.7,-2 11.7,-3.3 17.9,-3.3 4.1,0 10.3,0.8 10.3,6.8 0,10.9 -37.9,4.5 -37.9,25.9 0,11.2 8.1,16.5 20.6,16.5 2,0 6.8,-0.7 10.3,-1 l 2.5,-9.6 c -2.9,1 -5.8,1.7 -8.8,1.7 -4.5,0 -9.7,-1.3 -9.7,-6.7 0,-9.8 18.5,-9.6 23.9,-14.4 V 166 H 157 v -41.7 c -0.1,-12.8 -12.5,-15.2 -22.3,-15.2 z" />
		</g>
		<g
   id="g40">
			<path
   id="XMLID_40_"
   d="m 330.8,109.1 c -7.3,0 -14.5,1.1 -21.6,2.7 v 9.6 c 5.7,-2 11.8,-3.4 17.9,-3.4 4.1,0 10.3,0.8 10.3,6.8 0,10.9 -37.9,4.5 -37.9,25.9 0,11.2 8.1,16.5 20.6,16.5 2,0 6.8,-0.7 10.3,-1 l 2.4,-9.6 c -2.9,1 -5.8,1.7 -8.8,1.7 -4.5,0 -9.7,-1.3 -9.7,-6.7 0,-9.8 18.5,-9.6 23.9,-14.4 v 28.7 H 353 v -41.7 c 0,-12.7 -12.4,-15.1 -22.2,-15.1 z" />
		</g>
		<path
   id="XMLID_39_"
   d="m 240.2,102.2 c 4.2,0 7.6,-2.5 7.6,-5.5 0,-3.1 -3.4,-5.5 -7.6,-5.5 -4.2,0 -7.6,2.5 -7.6,5.5 0,3 3.4,5.5 7.6,5.5 z" />
		<path
   d="m 272.3,173.5 h 3.4 l -3.3,5.4 h -1.8 z"
   id="path43" />
		<path
   d="m 450,39.7 c 0,-4.9 3.9,-8.7 8.8,-8.7 4.9,0 8.8,3.9 8.8,8.7 0,4.9 -3.9,8.7 -8.8,8.7 -4.9,0.1 -8.8,-3.8 -8.8,-8.7 z m 16.2,0 c 0,-4.1 -3.4,-7.4 -7.4,-7.4 -4,0 -7.4,3.3 -7.4,7.4 0,4.1 3.4,7.4 7.4,7.4 3.9,0 7.4,-3.3 7.4,-7.4 z m -3.3,4.7 h -1.6 L 458.4,40 h -1.6 v 4.4 h -1.3 v -9.5 h 4.1 c 1.7,0 3.4,0.5 3.4,2.5 0,1.9 -1.3,2.6 -3,2.6 z m -4.5,-5.7 c 1.2,0 3.3,0.2 3.3,-1.3 0,-1 -1.3,-1.2 -2.3,-1.2 h -2.5 v 2.5 z"
   id="path45" />
	</g>
	<g
   id="g93">
		<path
   d="M 53.7,225.7 55,226 c -0.5,2.8 -0.9,6.2 -1.2,10 -0.1,1.1 -0.1,1.9 -0.2,2.3 -0.2,1.8 -0.6,3 -1.2,3.7 -0.6,0.7 -1.5,1.1 -2.6,1.1 -0.9,0 -1.7,-0.2 -2.2,-0.8 -0.5,-0.5 -0.8,-1.2 -0.8,-2.1 0,-1.1 0.9,-3.2 2.7,-6.4 1.9,-3.1 3.3,-5.8 4.2,-8.1 z m 1.9,-1.8 c -0.9,0 -1.6,-0.3 -2.2,-0.9 -0.6,-0.6 -0.9,-1.3 -0.9,-2.1 0,-0.8 0.3,-1.5 0.9,-2.1 0.6,-0.6 1.3,-0.9 2.2,-0.9 0.9,0 1.6,0.3 2.2,0.9 0.6,0.6 0.9,1.3 0.9,2.1 0,0.8 -0.3,1.5 -0.9,2.1 -0.6,0.6 -1.3,0.9 -2.2,0.9 z"
   id="path49" />
		<path
   d="m 83.3,217.8 h 0.9 l -1.5,8.2 -1.1,-0.1 v -0.5 c 0,-2 -0.5,-3.5 -1.4,-4.6 -0.9,-1.1 -2.2,-1.7 -3.8,-1.7 -1.2,0 -2.4,0.4 -3.5,1.1 -1.1,0.7 -2.2,1.8 -3.1,3.2 -1.1,1.5 -1.9,3.3 -2.6,5.3 -0.6,2 -1,4 -1,5.8 0,2.2 0.5,3.8 1.5,4.9 1,1.1 2.4,1.7 4.2,1.7 1.4,0 2.8,-0.4 4.1,-1.1 1.3,-0.7 2.4,-1.8 3.3,-3.2 l 1.3,0.9 c -1.3,1.8 -2.7,3.2 -4.4,4.1 -1.7,0.9 -3.7,1.3 -6,1.3 -3.4,0 -6,-0.9 -8,-2.6 -2,-1.8 -2.9,-4.2 -2.9,-7.2 0,-1.8 0.4,-3.7 1.1,-5.5 0.7,-1.8 1.7,-3.4 3,-4.9 1.5,-1.7 3.3,-3.1 5.3,-4 2,-0.9 4.1,-1.4 6.3,-1.4 1.5,0 3,0.2 4.5,0.6 1.5,0.4 2.4,0.6 2.4,0.6 0.3,0 0.6,-0.1 0.8,-0.3 0.2,0 0.4,-0.3 0.6,-0.6 z"
   id="path51" />
		<path
   d="m 94.5,225.7 c 2,0 3.6,0.5 4.8,1.6 1.2,1.1 1.8,2.5 1.8,4.3 0,1.2 -0.3,2.5 -0.9,3.9 -0.6,1.4 -1.4,2.7 -2.4,3.9 -1.1,1.2 -2.3,2.2 -3.7,2.9 -1.4,0.7 -2.9,1 -4.6,1 -2,0 -3.6,-0.5 -4.7,-1.6 -1.2,-1.1 -1.8,-2.5 -1.8,-4.3 0,-1.3 0.3,-2.6 0.9,-4 0.6,-1.4 1.5,-2.8 2.6,-4 1.1,-1.2 2.3,-2.1 3.7,-2.8 1.5,-0.6 2.9,-0.9 4.3,-0.9 z m 1.2,3.8 c 0,-0.8 -0.1,-1.4 -0.4,-1.7 -0.3,-0.4 -0.7,-0.6 -1.2,-0.6 -0.5,0 -1.1,0.3 -1.5,0.8 -0.5,0.5 -1,1.3 -1.5,2.5 -0.7,1.6 -1.3,3.3 -1.8,5.1 -0.4,1.8 -0.7,3.2 -0.7,4.3 0,0.7 0.1,1.3 0.4,1.6 0.3,0.3 0.7,0.5 1.3,0.5 0.6,0 1.1,-0.3 1.6,-0.8 0.5,-0.6 1,-1.4 1.5,-2.7 0.7,-1.5 1.2,-3.1 1.6,-4.8 0.5,-1.8 0.7,-3.2 0.7,-4.2 z"
   id="path53" />
		<path
   d="m 116.4,226 -0.9,5.6 -1,-0.1 c -0.3,-1.4 -0.7,-2.5 -1.2,-3.2 -0.6,-0.7 -1.2,-1.1 -2.1,-1.1 -0.5,0 -1,0.2 -1.4,0.5 -0.4,0.3 -0.5,0.7 -0.5,1.2 0,0.7 0.6,1.8 1.9,3.4 0.2,0.2 0.3,0.3 0.4,0.5 1.1,1.3 1.8,2.3 2.1,3 0.3,0.7 0.5,1.4 0.5,2.1 0,1.6 -0.6,2.9 -1.7,3.9 -1.1,1 -2.5,1.5 -4.2,1.5 -1,0 -2.1,-0.2 -3,-0.6 -1,-0.4 -1.5,-0.6 -1.5,-0.6 -0.2,0 -0.4,0 -0.5,0.1 -0.2,0.1 -0.4,0.3 -0.6,0.5 l -1.2,-0.1 1.1,-6.2 1.2,0.2 c 0,1.6 0.4,2.9 1,3.8 0.6,0.9 1.5,1.4 2.6,1.4 0.6,0 1.1,-0.2 1.4,-0.6 0.4,-0.4 0.5,-0.9 0.5,-1.6 0,-0.4 -0.1,-0.8 -0.3,-1.2 -0.2,-0.5 -0.6,-1 -1.1,-1.7 -0.1,-0.2 -0.3,-0.4 -0.6,-0.7 -2,-2.5 -3,-4.3 -3,-5.6 0,-1.4 0.5,-2.5 1.6,-3.4 1,-0.9 2.4,-1.3 4.1,-1.3 0.9,0 1.8,0.2 2.8,0.5 1,0.3 1.6,0.5 1.7,0.5 0.2,0 0.3,0 0.4,-0.1 0.1,-0.1 0.3,-0.3 0.4,-0.5 h 1.1 z"
   id="path55" />
		<path
   d="m 131.7,238.3 c -0.9,1.7 -2,3 -3.2,3.8 -1.3,0.8 -2.8,1.2 -4.6,1.2 -2.1,0 -3.7,-0.5 -4.8,-1.5 -1.1,-1 -1.7,-2.4 -1.7,-4.3 0,-1.4 0.3,-2.9 1,-4.4 0.7,-1.5 1.6,-2.9 2.8,-4 1.1,-1.1 2.4,-1.9 3.7,-2.5 1.4,-0.6 2.7,-0.9 4,-0.9 1.4,0 2.5,0.3 3.4,1 0.8,0.6 1.3,1.5 1.3,2.6 0,1.7 -0.9,3.1 -2.8,4.4 -1.8,1.2 -4.3,2.1 -7.4,2.5 -0.1,0.3 -0.1,0.6 -0.1,0.8 0,0.3 0,0.5 0,0.7 0,1.1 0.2,1.9 0.7,2.4 0.4,0.5 1.1,0.8 2.1,0.8 0.9,0 1.7,-0.2 2.5,-0.7 0.7,-0.5 1.5,-1.3 2.2,-2.4 z m -8,-3.8 c 1.6,-0.4 2.9,-1.1 4,-2.3 1.1,-1.1 1.6,-2.3 1.6,-3.6 0,-0.4 -0.1,-0.8 -0.3,-1 -0.2,-0.3 -0.5,-0.4 -0.8,-0.4 -0.8,0 -1.6,0.7 -2.4,2 -0.9,1.3 -1.5,3 -2.1,5.3 z"
   id="path57" />
		<path
   d="m 148.6,238.2 c -1,1.7 -2.2,3 -3.6,3.8 -1.4,0.8 -3,1.3 -4.7,1.3 -1.9,0 -3.4,-0.5 -4.5,-1.6 -1.1,-1 -1.6,-2.5 -1.6,-4.3 0,-1.5 0.3,-3 1,-4.5 0.7,-1.5 1.5,-2.8 2.7,-4 1,-1 2.2,-1.9 3.4,-2.4 1.2,-0.6 2.4,-0.9 3.6,-0.9 1.5,0 2.7,0.4 3.7,1.3 1,0.8 1.5,1.8 1.5,2.9 0,0.8 -0.2,1.5 -0.7,2 -0.5,0.5 -1.1,0.8 -1.8,0.8 -0.7,0 -1.2,-0.2 -1.6,-0.6 -0.4,-0.4 -0.6,-0.9 -0.6,-1.5 0,-0.4 0.1,-0.9 0.4,-1.3 0.3,-0.5 0.4,-0.8 0.4,-0.9 0,-0.3 -0.1,-0.5 -0.3,-0.6 -0.2,-0.1 -0.4,-0.2 -0.7,-0.2 -0.5,0 -1,0.2 -1.5,0.7 -0.5,0.5 -1.1,1.1 -1.6,2 -0.6,1.1 -1.1,2.3 -1.5,3.6 -0.4,1.3 -0.6,2.5 -0.6,3.6 0,1.1 0.3,2 0.8,2.6 0.5,0.6 1.2,1 2.1,1 0.8,0 1.6,-0.3 2.3,-0.9 0.8,-0.6 1.5,-1.5 2.2,-2.7 z"
   id="path59" />
		<path
   d="m 155.7,222.7 c 0,-0.1 0.1,-0.3 0.1,-0.6 0.2,-0.9 0.4,-1.5 0.4,-1.7 0,-0.3 -0.1,-0.6 -0.4,-0.8 -0.3,-0.2 -0.6,-0.2 -1.2,-0.2 h -0.3 v -0.9 c 1.8,-0.2 3.3,-0.3 4.8,-0.5 1.4,-0.2 2.6,-0.4 3.5,-0.6 l -4.1,14.8 c 1.5,-2.4 2.9,-4.1 4.2,-5 1.3,-1 2.7,-1.5 4.3,-1.5 1,0 1.7,0.3 2.3,0.8 0.6,0.5 0.8,1.2 0.8,2.2 0,0.4 -0.1,1.1 -0.3,1.9 -0.2,0.8 -0.5,1.8 -0.9,3 l -1.7,4.9 c -0.1,0.2 -0.1,0.4 -0.2,0.6 0,0.2 -0.1,0.3 -0.1,0.4 0,0.2 0.1,0.4 0.2,0.6 0.1,0.1 0.3,0.2 0.4,0.2 0.2,0 0.5,-0.2 0.7,-0.5 0.3,-0.3 0.8,-1 1.5,-2 l 0.9,0.7 c -1.1,1.8 -2.2,3.1 -3.2,3.8 -1,0.8 -2.1,1.2 -3.3,1.2 -1,0 -1.8,-0.2 -2.3,-0.7 -0.5,-0.5 -0.8,-1.1 -0.8,-2 0,-0.5 0.1,-1.2 0.3,-2 0.2,-0.8 0.6,-2.2 1.3,-4.2 l 1.2,-3.7 c 0.1,-0.3 0.2,-0.6 0.2,-0.8 0.1,-0.2 0.1,-0.4 0.1,-0.6 0,-0.2 -0.1,-0.4 -0.2,-0.5 -0.1,-0.1 -0.3,-0.2 -0.5,-0.2 -1.2,0 -2.5,1.3 -4,4 -1.5,2.7 -2.7,6 -3.6,10 h -5.4 z"
   id="path61" />
		<path
   d="m 191.9,226.3 -3,10.4 v 0 c -0.5,1.6 -0.7,2.5 -0.7,2.8 0,0.2 0,0.4 0.1,0.6 0.1,0.2 0.2,0.2 0.4,0.2 0.5,0 1.1,-0.6 1.9,-1.7 0.2,-0.3 0.4,-0.6 0.5,-0.7 l 0.9,0.6 c -1,1.6 -2,2.8 -2.9,3.6 -1,0.8 -2.1,1.1 -3.2,1.1 -0.9,0 -1.7,-0.2 -2.2,-0.6 -0.5,-0.4 -0.7,-1 -0.7,-1.8 0,-0.2 0,-0.5 0.1,-0.9 0,-0.4 0.1,-0.8 0.2,-1.4 -0.9,1.6 -1.9,2.7 -2.9,3.5 -1.1,0.8 -2.2,1.1 -3.5,1.1 -1.3,0 -2.4,-0.4 -3.2,-1.2 -0.8,-0.8 -1.2,-1.9 -1.2,-3.3 0,-1.6 0.4,-3.3 1.1,-5.1 0.7,-1.8 1.8,-3.3 3,-4.7 1,-1.1 2,-1.9 3.1,-2.5 1.1,-0.6 2.1,-0.9 3.1,-0.9 0.9,0 1.7,0.2 2.2,0.7 0.5,0.4 0.9,1.1 1.1,2 l 0.6,-2.1 h 5.2 z m -6.8,3 c 0,-0.5 -0.1,-0.9 -0.3,-1.2 -0.2,-0.3 -0.5,-0.5 -0.9,-0.5 -0.5,0 -1,0.3 -1.5,0.8 -0.5,0.5 -1.1,1.3 -1.7,2.5 -0.8,1.4 -1.4,2.8 -1.8,4.1 -0.4,1.3 -0.6,2.5 -0.6,3.4 0,0.6 0.1,1 0.4,1.3 0.2,0.3 0.6,0.5 1,0.5 0.6,0 1.2,-0.3 1.8,-1 0.6,-0.7 1.2,-1.7 1.8,-2.9 0.6,-1.4 1.1,-2.8 1.4,-4.1 0.3,-1.2 0.4,-2.2 0.4,-2.9 z"
   id="path63" />
		<path
   d="m 195.2,227 c 1.8,-0.1 3.3,-0.3 4.8,-0.5 1.4,-0.2 2.6,-0.4 3.5,-0.6 l -1.9,6.3 c 1.5,-2.4 2.9,-4.1 4.1,-5 1.3,-1 2.7,-1.5 4.3,-1.5 1,0 1.7,0.3 2.3,0.8 0.5,0.5 0.8,1.2 0.8,2.2 0,0.5 -0.1,1.1 -0.3,1.9 -0.2,0.8 -0.5,1.8 -0.8,2.9 l -1.7,4.9 c 0,0 0,0.1 0,0.2 -0.1,0.4 -0.2,0.7 -0.2,0.8 0,0.2 0.1,0.4 0.2,0.6 0.1,0.2 0.3,0.2 0.5,0.2 0.2,0 0.4,-0.1 0.7,-0.4 0.3,-0.3 0.8,-1 1.5,-2.1 l 0.9,0.7 c -1.1,1.8 -2.2,3.1 -3.2,3.8 -1,0.8 -2.1,1.2 -3.2,1.2 -1,0 -1.8,-0.2 -2.4,-0.7 -0.5,-0.5 -0.8,-1.1 -0.8,-2 0,-0.6 0.1,-1.3 0.3,-2.2 0.2,-0.9 0.6,-2.2 1.3,-4 l 1.3,-3.7 c 0.1,-0.3 0.2,-0.5 0.2,-0.8 0,-0.2 0.1,-0.4 0.1,-0.6 0,-0.2 -0.1,-0.4 -0.2,-0.5 -0.1,-0.1 -0.3,-0.2 -0.5,-0.2 -1.2,0 -2.5,1.3 -4.1,4 -1.5,2.7 -2.7,6 -3.7,10 h -5.5 l 3.1,-11.4 0.1,-0.3 c 0.3,-1.1 0.4,-1.7 0.4,-2 0,-0.3 -0.1,-0.6 -0.4,-0.8 -0.3,-0.2 -0.6,-0.3 -1.2,-0.3 h -0.3 z"
   id="path65" />
		<path
   d="m 228.7,226.9 1.4,-4.7 c 0.1,-0.4 0.2,-0.7 0.2,-1 0.1,-0.3 0.1,-0.5 0.1,-0.7 0,-0.4 -0.1,-0.7 -0.4,-0.9 -0.3,-0.2 -0.7,-0.3 -1.2,-0.3 h -0.5 v -1 c 1.3,-0.1 2.7,-0.2 4.2,-0.4 1.5,-0.2 3,-0.4 4.7,-0.7 l -5.7,20.4 c -0.1,0.4 -0.2,0.8 -0.3,1.1 -0.1,0.4 -0.1,0.6 -0.1,0.7 0,0.2 0.1,0.4 0.2,0.6 0.1,0.2 0.2,0.2 0.4,0.2 0.4,0 1,-0.5 1.8,-1.6 0.2,-0.3 0.4,-0.6 0.6,-0.8 l 0.9,0.6 c -1,1.6 -1.9,2.8 -2.9,3.6 -1,0.8 -2.1,1.1 -3.3,1.1 -0.9,0 -1.6,-0.2 -2.1,-0.7 -0.5,-0.4 -0.7,-1.1 -0.7,-2 0,-0.2 0,-0.5 0.1,-0.9 0,-0.3 0.1,-0.7 0.2,-1.1 -0.9,1.6 -1.9,2.7 -2.9,3.5 -1,0.8 -2.2,1.1 -3.5,1.1 -1.4,0 -2.5,-0.4 -3.3,-1.2 -0.8,-0.8 -1.1,-1.9 -1.1,-3.4 0,-1.6 0.4,-3.2 1.1,-5 0.7,-1.8 1.8,-3.3 3,-4.7 0.9,-1.1 2,-1.9 3,-2.5 1.1,-0.6 2.1,-0.9 3,-0.9 0.7,0 1.3,0.1 1.8,0.3 0.5,0.6 0.9,0.9 1.3,1.3 z m -0.6,2.4 c 0,-0.5 -0.1,-0.9 -0.3,-1.2 -0.2,-0.3 -0.5,-0.5 -0.9,-0.5 -0.5,0 -1,0.3 -1.5,0.8 -0.5,0.5 -1.1,1.3 -1.7,2.5 -0.8,1.4 -1.4,2.8 -1.8,4.1 -0.4,1.3 -0.6,2.5 -0.6,3.4 0,0.6 0.1,1 0.4,1.3 0.2,0.3 0.6,0.5 1,0.5 0.6,0 1.2,-0.3 1.8,-1 0.6,-0.7 1.2,-1.7 1.8,-2.9 0.6,-1.4 1.1,-2.8 1.4,-4.1 0.2,-1.2 0.4,-2.2 0.4,-2.9 z"
   id="path67" />
		<path
   d="m 247.7,225.7 c 2,0 3.6,0.5 4.8,1.6 1.2,1.1 1.8,2.5 1.8,4.3 0,1.2 -0.3,2.5 -0.9,3.9 -0.6,1.4 -1.4,2.7 -2.4,3.9 -1.1,1.2 -2.3,2.2 -3.7,2.9 -1.4,0.7 -2.9,1 -4.6,1 -2,0 -3.6,-0.5 -4.7,-1.6 -1.2,-1.1 -1.8,-2.5 -1.8,-4.3 0,-1.3 0.3,-2.6 0.9,-4 0.6,-1.4 1.5,-2.8 2.6,-4 1.1,-1.2 2.3,-2.1 3.7,-2.8 1.4,-0.6 2.8,-0.9 4.3,-0.9 z m 1.1,3.8 c 0,-0.8 -0.1,-1.4 -0.4,-1.7 -0.3,-0.4 -0.7,-0.6 -1.2,-0.6 -0.5,0 -1.1,0.3 -1.5,0.8 -0.5,0.5 -1,1.3 -1.5,2.5 -0.7,1.6 -1.3,3.3 -1.8,5.1 -0.4,1.8 -0.7,3.2 -0.7,4.3 0,0.7 0.1,1.3 0.4,1.6 0.3,0.3 0.7,0.5 1.3,0.5 0.6,0 1.1,-0.3 1.6,-0.8 0.5,-0.6 1,-1.4 1.5,-2.7 0.7,-1.5 1.2,-3.1 1.6,-4.8 0.5,-1.8 0.7,-3.2 0.7,-4.2 z"
   id="path69" />
		<path
   d="m 266.6,227 c 1.8,-0.1 3.3,-0.3 4.8,-0.5 1.4,-0.2 2.6,-0.4 3.5,-0.6 l -1.9,6.5 c 1.5,-2.5 2.7,-4.3 3.6,-5.3 1,-1 1.9,-1.5 2.9,-1.5 0.7,0 1.3,0.2 1.7,0.7 0.4,0.5 0.6,1.1 0.6,2 0,0.9 -0.2,1.6 -0.6,2.2 -0.4,0.5 -1,0.8 -1.7,0.8 -0.7,0 -1.2,-0.2 -1.7,-0.7 -0.4,-0.5 -0.8,-0.7 -1,-0.7 -0.8,0 -1.8,1.3 -3.1,3.8 -1.3,2.5 -2.4,5.5 -3.2,9 H 265 l 3.1,-11.4 0.1,-0.3 c 0.3,-1.1 0.4,-1.7 0.4,-2 0,-0.3 -0.1,-0.6 -0.4,-0.8 -0.3,-0.2 -0.6,-0.3 -1.2,-0.3 h -0.3 V 227 Z"
   id="path71" />
		<path
   d="m 295.4,238.3 c -0.9,1.7 -2,3 -3.2,3.8 -1.3,0.8 -2.8,1.2 -4.6,1.2 -2.1,0 -3.7,-0.5 -4.8,-1.5 -1.1,-1 -1.7,-2.4 -1.7,-4.3 0,-1.4 0.3,-2.9 1,-4.4 0.7,-1.5 1.6,-2.9 2.8,-4 1.1,-1.1 2.4,-1.9 3.7,-2.5 1.4,-0.6 2.7,-0.9 4,-0.9 1.4,0 2.5,0.3 3.4,1 0.8,0.6 1.3,1.5 1.3,2.6 0,1.7 -0.9,3.1 -2.8,4.4 -1.8,1.2 -4.3,2.1 -7.4,2.5 -0.1,0.3 -0.1,0.6 -0.1,0.8 0,0.3 0,0.5 0,0.7 0,1.1 0.2,1.9 0.7,2.4 0.4,0.5 1.1,0.8 2.1,0.8 0.9,0 1.7,-0.2 2.5,-0.7 0.7,-0.5 1.5,-1.3 2.2,-2.4 z m -8,-3.8 c 1.6,-0.4 2.9,-1.1 4,-2.3 1.1,-1.1 1.6,-2.3 1.6,-3.6 0,-0.4 -0.1,-0.8 -0.3,-1 -0.2,-0.3 -0.5,-0.4 -0.8,-0.4 -0.8,0 -1.6,0.7 -2.4,2 -0.9,1.3 -1.6,3 -2.1,5.3 z"
   id="path73" />
		<path
   d="m 311.7,226 -0.9,5.6 -1,-0.1 c -0.3,-1.4 -0.7,-2.5 -1.2,-3.2 -0.6,-0.7 -1.2,-1.1 -2.1,-1.1 -0.6,0 -1,0.2 -1.4,0.5 -0.4,0.3 -0.5,0.7 -0.5,1.2 0,0.7 0.6,1.8 1.9,3.4 0.2,0.2 0.3,0.3 0.4,0.5 1.1,1.3 1.8,2.3 2.1,3 0.3,0.7 0.5,1.4 0.5,2.1 0,1.6 -0.6,2.9 -1.7,3.9 -1.1,1 -2.5,1.5 -4.2,1.5 -1,0 -2.1,-0.2 -3,-0.6 -1,-0.4 -1.5,-0.6 -1.5,-0.6 -0.2,0 -0.4,0 -0.5,0.1 -0.2,0.1 -0.4,0.3 -0.6,0.5 l -1.2,-0.1 1.1,-6.2 1.2,0.2 c 0,1.6 0.4,2.9 1,3.8 0.6,0.9 1.5,1.4 2.6,1.4 0.6,0 1.1,-0.2 1.4,-0.6 0.4,-0.4 0.5,-0.9 0.5,-1.6 0,-0.4 -0.1,-0.8 -0.3,-1.2 -0.2,-0.5 -0.6,-1 -1.1,-1.7 -0.1,-0.2 -0.3,-0.4 -0.6,-0.7 -2,-2.5 -3,-4.3 -3,-5.6 0,-1.4 0.5,-2.5 1.6,-3.4 1,-0.9 2.4,-1.3 4.1,-1.3 0.9,0 1.8,0.2 2.8,0.5 1,0.3 1.6,0.5 1.7,0.5 0.2,0 0.3,0 0.4,-0.1 0.1,-0.1 0.3,-0.3 0.4,-0.5 h 1.1 z"
   id="path75" />
		<path
   d="m 314.3,226.8 c 1.9,-0.2 3.5,-0.3 4.9,-0.5 1.4,-0.2 2.5,-0.4 3.3,-0.6 l -3.5,12.6 c 0,0 0,0.1 -0.1,0.2 -0.2,0.6 -0.2,1 -0.2,1.3 0,0.2 0.1,0.3 0.2,0.4 0.1,0.1 0.3,0.2 0.4,0.2 1.2,0 2.6,-1.3 4.1,-4 1.5,-2.6 2.7,-6 3.6,-10.1 h 5.5 l -3.2,11.9 c -0.1,0.3 -0.1,0.5 -0.1,0.7 0,0.2 -0.1,0.3 -0.1,0.3 0,0.2 0.1,0.4 0.2,0.5 0.1,0.1 0.2,0.2 0.4,0.2 0.2,0 0.4,-0.2 0.7,-0.5 0.3,-0.3 0.7,-1 1.4,-2 l 0.9,0.7 c -1.1,1.9 -2.1,3.2 -3.1,4 -0.9,0.8 -1.9,1.2 -3,1.2 -0.9,0 -1.6,-0.3 -2.1,-0.8 -0.5,-0.5 -0.8,-1.2 -0.8,-2.1 0,-0.4 0.1,-1 0.2,-1.6 0.1,-0.6 0.3,-1.3 0.5,-2.1 -1.4,2.2 -2.7,3.9 -4,4.9 -1.3,1.1 -2.7,1.6 -4.1,1.6 -1,0 -1.7,-0.3 -2.2,-0.8 -0.5,-0.5 -0.8,-1.2 -0.8,-2.2 0,-0.4 0,-0.8 0.1,-1.3 0.1,-0.4 0.2,-0.9 0.3,-1.4 l 1.9,-6.6 c 0.2,-0.6 0.3,-1.1 0.4,-1.5 0.1,-0.4 0.1,-0.6 0.1,-0.8 0,-0.3 -0.1,-0.6 -0.4,-0.8 -0.3,-0.2 -0.6,-0.2 -1.2,-0.2 h -0.3 v -0.8 z"
   id="path77" />
		<path
   d="m 337.9,218.5 c 1.5,-0.1 3,-0.3 4.4,-0.5 1.4,-0.2 2.7,-0.4 4,-0.7 l -5.6,21 c 0,0.1 -0.1,0.3 -0.1,0.4 -0.1,0.3 -0.1,0.4 -0.1,0.5 0,0.2 0.1,0.4 0.2,0.6 0.1,0.1 0.3,0.2 0.5,0.2 0.2,0 0.4,-0.1 0.7,-0.4 0.3,-0.3 0.8,-1 1.5,-2.1 l 0.9,0.7 c -1.1,1.8 -2.2,3.1 -3.2,3.9 -1,0.8 -2.1,1.2 -3.2,1.2 -1,0 -1.7,-0.3 -2.3,-0.8 -0.5,-0.5 -0.8,-1.3 -0.8,-2.2 0,-0.5 0.3,-1.7 0.8,-3.8 l 0.1,-0.2 3.7,-13.7 c 0,-0.1 0.1,-0.3 0.1,-0.6 0.2,-0.9 0.3,-1.5 0.3,-1.7 0,-0.3 -0.1,-0.6 -0.4,-0.8 -0.3,-0.2 -0.6,-0.2 -1.2,-0.2 h -0.3 z"
   id="path79" />
		<path
   d="m 357.6,221.2 -1.5,5.1 h 2.9 l -0.3,1.6 h -2.9 l -2.7,9.2 c -0.2,0.6 -0.3,1.1 -0.4,1.6 -0.1,0.4 -0.1,0.7 -0.1,0.9 0,0.2 0.1,0.4 0.2,0.5 0.1,0.1 0.3,0.2 0.4,0.2 0.3,0 0.6,-0.2 1,-0.5 0.3,-0.3 0.9,-1.1 1.7,-2.3 l 0.9,0.6 c -1.1,1.8 -2.2,3.2 -3.2,4 -1,0.8 -2.2,1.2 -3.4,1.2 -1.1,0 -1.9,-0.2 -2.4,-0.7 -0.6,-0.4 -0.8,-1.1 -0.8,-2 0,-0.4 0,-0.8 0.1,-1.2 0.1,-0.4 0.2,-0.9 0.3,-1.3 l 2.8,-10.3 h -2 l 0.4,-1.5 c 1.3,-0.3 2.6,-0.9 3.8,-1.7 1.2,-0.9 2.3,-2 3.4,-3.5 h 1.8 z"
   id="path81" />
		<path
   d="m 377.7,226.3 -3,10.4 v 0 c -0.5,1.6 -0.7,2.5 -0.7,2.8 0,0.2 0,0.4 0.1,0.6 0.1,0.2 0.2,0.2 0.4,0.2 0.5,0 1.1,-0.6 1.9,-1.7 0.2,-0.3 0.4,-0.6 0.5,-0.7 l 0.9,0.6 c -1,1.6 -2,2.8 -2.9,3.6 -1,0.8 -2.1,1.1 -3.2,1.1 -0.9,0 -1.7,-0.2 -2.2,-0.6 -0.5,-0.4 -0.7,-1 -0.7,-1.8 0,-0.2 0,-0.5 0.1,-0.9 0,-0.4 0.1,-0.8 0.2,-1.4 -0.9,1.6 -1.9,2.7 -2.9,3.5 -1.1,0.8 -2.2,1.1 -3.5,1.1 -1.3,0 -2.4,-0.4 -3.2,-1.2 -0.8,-0.8 -1.2,-1.9 -1.2,-3.3 0,-1.6 0.4,-3.3 1.1,-5.1 0.7,-1.8 1.8,-3.3 3,-4.7 1,-1.1 2,-1.9 3.1,-2.5 1.1,-0.6 2.1,-0.9 3.1,-0.9 0.9,0 1.7,0.2 2.2,0.7 0.5,0.4 0.9,1.1 1.1,2 l 0.6,-2.1 h 5.2 z m -6.8,3 c 0,-0.5 -0.1,-0.9 -0.3,-1.2 -0.2,-0.3 -0.5,-0.5 -0.9,-0.5 -0.5,0 -1,0.3 -1.5,0.8 -0.5,0.5 -1.1,1.3 -1.7,2.5 -0.8,1.4 -1.4,2.8 -1.8,4.1 -0.4,1.3 -0.6,2.5 -0.6,3.4 0,0.6 0.1,1 0.4,1.3 0.2,0.3 0.6,0.5 1,0.5 0.6,0 1.2,-0.3 1.8,-1 0.6,-0.7 1.2,-1.7 1.8,-2.9 0.6,-1.4 1.1,-2.8 1.4,-4.1 0.2,-1.2 0.4,-2.2 0.4,-2.9 z"
   id="path83" />
		<path
   d="m 392.8,226.9 1.4,-4.7 c 0.1,-0.4 0.2,-0.7 0.2,-1 0.1,-0.3 0.1,-0.5 0.1,-0.7 0,-0.4 -0.1,-0.7 -0.4,-0.9 -0.3,-0.2 -0.7,-0.3 -1.2,-0.3 h -0.5 v -1 c 1.3,-0.1 2.7,-0.2 4.2,-0.4 1.5,-0.2 3,-0.4 4.7,-0.7 l -5.7,20.4 c -0.1,0.4 -0.2,0.8 -0.3,1.1 -0.1,0.4 -0.1,0.6 -0.1,0.7 0,0.2 0.1,0.4 0.2,0.6 0.1,0.2 0.2,0.2 0.4,0.2 0.4,0 1,-0.5 1.8,-1.6 0.2,-0.3 0.4,-0.6 0.6,-0.8 l 0.9,0.6 c -1,1.6 -1.9,2.8 -2.9,3.6 -1,0.8 -2.1,1.1 -3.3,1.1 -0.9,0 -1.6,-0.2 -2.1,-0.7 -0.5,-0.4 -0.7,-1.1 -0.7,-2 0,-0.2 0,-0.5 0.1,-0.9 0,-0.3 0.1,-0.7 0.2,-1.1 -0.9,1.6 -1.9,2.7 -2.9,3.5 -1,0.8 -2.2,1.1 -3.5,1.1 -1.4,0 -2.5,-0.4 -3.3,-1.2 -0.8,-0.8 -1.1,-1.9 -1.1,-3.4 0,-1.6 0.4,-3.2 1.1,-5 0.7,-1.8 1.8,-3.3 3,-4.7 0.9,-1.1 2,-1.9 3,-2.5 1.1,-0.6 2.1,-0.9 3,-0.9 0.7,0 1.3,0.1 1.8,0.3 0.5,0.6 0.9,0.9 1.3,1.3 z m -0.6,2.4 c 0,-0.5 -0.1,-0.9 -0.3,-1.2 -0.2,-0.3 -0.5,-0.5 -0.9,-0.5 -0.5,0 -1,0.3 -1.5,0.8 -0.5,0.5 -1.1,1.3 -1.7,2.5 -0.8,1.4 -1.4,2.8 -1.8,4.1 -0.4,1.3 -0.6,2.5 -0.6,3.4 0,0.6 0.1,1 0.4,1.3 0.2,0.3 0.6,0.5 1,0.5 0.6,0 1.2,-0.3 1.8,-1 0.6,-0.7 1.2,-1.7 1.8,-2.9 0.6,-1.4 1.1,-2.8 1.4,-4.1 0.2,-1.2 0.4,-2.2 0.4,-2.9 z"
   id="path85" />
		<path
   d="m 411.7,225.7 c 2,0 3.6,0.5 4.8,1.6 1.2,1.1 1.8,2.5 1.8,4.3 0,1.2 -0.3,2.5 -0.9,3.9 -0.6,1.4 -1.4,2.7 -2.4,3.9 -1.1,1.2 -2.3,2.2 -3.7,2.9 -1.4,0.7 -2.9,1 -4.6,1 -2,0 -3.6,-0.5 -4.7,-1.6 -1.2,-1.1 -1.8,-2.5 -1.8,-4.3 0,-1.3 0.3,-2.6 0.9,-4 0.6,-1.4 1.5,-2.8 2.6,-4 1.1,-1.2 2.3,-2.1 3.7,-2.8 1.5,-0.6 2.9,-0.9 4.3,-0.9 z m 1.2,3.8 c 0,-0.8 -0.1,-1.4 -0.4,-1.7 -0.3,-0.4 -0.7,-0.6 -1.2,-0.6 -0.5,0 -1.1,0.3 -1.5,0.8 -0.5,0.5 -1,1.3 -1.5,2.5 -0.7,1.6 -1.3,3.3 -1.8,5.1 -0.4,1.8 -0.7,3.2 -0.7,4.3 0,0.7 0.1,1.3 0.4,1.6 0.3,0.3 0.7,0.5 1.3,0.5 0.6,0 1.1,-0.3 1.6,-0.8 0.5,-0.6 1,-1.4 1.6,-2.7 0.7,-1.5 1.2,-3.1 1.6,-4.8 0.4,-1.8 0.6,-3.2 0.6,-4.2 z"
   id="path87" />
		<path
   d="m 433.6,226 -0.9,5.6 -1,-0.1 c -0.3,-1.4 -0.7,-2.5 -1.2,-3.2 -0.5,-0.7 -1.2,-1.1 -2.1,-1.1 -0.5,0 -1,0.2 -1.4,0.5 -0.4,0.3 -0.5,0.7 -0.5,1.2 0,0.7 0.6,1.8 1.9,3.4 0.2,0.2 0.3,0.3 0.4,0.5 1.1,1.3 1.8,2.3 2.1,3 0.3,0.7 0.5,1.4 0.5,2.1 0,1.6 -0.6,2.9 -1.7,3.9 -1.1,1 -2.5,1.5 -4.2,1.5 -1,0 -2.1,-0.2 -3,-0.6 -1,-0.4 -1.5,-0.6 -1.5,-0.6 -0.2,0 -0.4,0 -0.5,0.1 -0.2,0.1 -0.4,0.3 -0.6,0.5 l -1.2,-0.1 1.1,-6.2 1.2,0.2 c 0,1.6 0.4,2.9 1,3.8 0.6,0.9 1.5,1.4 2.6,1.4 0.6,0 1.1,-0.2 1.4,-0.6 0.4,-0.4 0.5,-0.9 0.5,-1.6 0,-0.4 -0.1,-0.8 -0.3,-1.2 -0.2,-0.5 -0.6,-1 -1.1,-1.7 -0.1,-0.2 -0.3,-0.4 -0.6,-0.7 -2,-2.5 -3,-4.3 -3,-5.6 0,-1.4 0.5,-2.5 1.6,-3.4 1,-0.9 2.4,-1.3 4.1,-1.3 0.9,0 1.8,0.2 2.8,0.5 1,0.3 1.6,0.5 1.7,0.5 0.2,0 0.3,0 0.4,-0.1 0.1,-0.1 0.3,-0.3 0.4,-0.5 h 1.1 z"
   id="path89" />
		<path
   d="m 437.7,237.3 c 0.9,0 1.6,0.3 2.2,0.9 0.6,0.6 0.9,1.3 0.9,2.1 0,0.8 -0.3,1.5 -0.9,2.1 -0.6,0.6 -1.4,0.9 -2.2,0.9 -0.9,0 -1.6,-0.3 -2.2,-0.9 -0.6,-0.6 -0.9,-1.3 -0.9,-2.1 0,-0.8 0.3,-1.5 0.9,-2.1 0.6,-0.7 1.4,-0.9 2.2,-0.9 z m 2,-1.9 -1.3,-0.2 c 0.5,-2.8 0.9,-6.1 1.2,-10 0.1,-1.1 0.1,-1.9 0.2,-2.3 0.2,-1.8 0.6,-3 1.2,-3.8 0.6,-0.7 1.4,-1.1 2.6,-1.1 1,0 1.7,0.2 2.2,0.7 0.5,0.5 0.8,1.2 0.8,2.1 0,1.1 -0.9,3.2 -2.7,6.4 -1.9,3.2 -3.3,6 -4.2,8.2 z"
   id="path91" />
	</g>
</g>
</svg>
