<?xml version="1.0" encoding="UTF-8" standalone="no"?>
<!-- Generator: Adobe Illustrator 23.0.3, SVG Export Plug-In . SVG Version: 6.00 Build 0)  -->

<svg
   version="1.1"
   id="Layer_1"
   x="0px"
   y="0px"
   viewBox="0 0 85 71.6"
   style="enable-background:new 0 0 85 71.6;"
   xml:space="preserve"
   sodipodi:docname="lapisa-agricola-b.svg"
   inkscape:version="1.2.2 (b0a8486541, 2022-12-01)"
   xmlns:inkscape="http://www.inkscape.org/namespaces/inkscape"
   xmlns:sodipodi="http://sodipodi.sourceforge.net/DTD/sodipodi-0.dtd"
   xmlns="http://www.w3.org/2000/svg"
   xmlns:svg="http://www.w3.org/2000/svg"
   xmlns:rdf="http://www.w3.org/1999/02/22-rdf-syntax-ns#"
   xmlns:cc="http://creativecommons.org/ns#"
   xmlns:dc="http://purl.org/dc/elements/1.1/"><defs
   id="defs37" /><sodipodi:namedview
   id="namedview35"
   pagecolor="#909090"
   bordercolor="#000000"
   borderopacity="0.25"
   inkscape:showpageshadow="2"
   inkscape:pageopacity="0"
   inkscape:pagecheckerboard="0"
   inkscape:deskcolor="#d1d1d1"
   showgrid="false"
   inkscape:zoom="9.3227488"
   inkscape:cx="54.597631"
   inkscape:cy="36.845356"
   inkscape:window-width="1240"
   inkscape:window-height="962"
   inkscape:window-x="40"
   inkscape:window-y="30"
   inkscape:window-maximized="1"
   inkscape:current-layer="Layer_1" />
<style
   type="text/css"
   id="style2">
	.st0{fill:none;stroke:#FCFCFC;stroke-miterlimit:10;}
	.st1{fill:#FCFCFC;}
</style>
<title
   id="title4">lapisa-agricola-b</title>
<polygon
   class="st0"
   points="45.8,53.6 56.4,42.9 56.4,30.5 45.8,41.2 "
   id="polygon6" />
<polygon
   class="st0"
   points="42.4,56.1 28.4,42.1 28.4,16.2 42.4,2.2 "
   id="polygon8" />
<polygon
   class="st0"
   points="45.8,20.1 53.1,12.9 45.8,5.6 "
   id="polygon10" />
<polygon
   class="st0"
   points="45.8,35.5 56.5,24.9 56.5,16.2 55.5,15.3 45.8,25 "
   id="polygon12" />
<path
   class="st1"
   d="M51.2,4.7c0-1.5,1.2-2.7,2.7-2.7c1.5,0,2.7,1.2,2.7,2.7c0,1.5-1.2,2.7-2.7,2.7h0C52.4,7.4,51.2,6.2,51.2,4.7  C51.2,4.7,51.2,4.7,51.2,4.7z M56.2,4.7c0-1.3-1-2.3-2.3-2.3c-1.3,0-2.3,1-2.3,2.3s1,2.3,2.3,2.3c0,0,0,0,0,0  C55.2,7,56.2,6,56.2,4.7z M55.2,6.2h-0.5l-0.9-1.4h-0.5v1.4h-0.4V3.2h1.3c0.5,0,1.1,0.1,1.1,0.8c0,0.6-0.4,0.8-0.9,0.8L55.2,6.2z   M53.8,4.4c0.4,0,1,0.1,1-0.4c0-0.3-0.4-0.4-0.7-0.4h-0.8v0.8L53.8,4.4z"
   id="path14" />
<path
   class="st1"
   d="M23,61.5h0.9l2.7,6.5h-0.7l-1.2-2.9h-2.8L20.6,68h-0.7L23,61.5z M24.5,64.6l-1.1-2.6h0l-1.3,2.6L24.5,64.6z"
   id="path16" />
<path
   class="st1"
   d="M32.9,64.4v3.4C32,68,31,68.1,30.1,68.1c-2.5,0-3.6-1.6-3.6-3.2c-0.2-1.8,1.1-3.4,2.9-3.5c0.2,0,0.4,0,0.7,0  c0.8,0,1.6,0.1,2.4,0.3l0.1,0.6c-0.8-0.3-1.7-0.4-2.5-0.4c-0.9,0-2.9,0.3-2.9,3c-0.1,1.4,1,2.7,2.5,2.8c0.1,0,0.3,0,0.4,0  c0.7,0,1.4-0.1,2.1-0.3v-2.5h-1.7v-0.5L32.9,64.4z"
   id="path18" />
<path
   class="st1"
   d="M33.9,61.5h2.4c1.4,0,1.9,0.8,1.9,1.5c0,1.2-0.7,1.9-2.2,1.9l2.4,3.1h-0.8L35,64.5c0.2,0,0.5,0.1,0.7,0.1  c1.5,0,1.8-0.9,1.8-1.5c0-0.9-0.7-1.1-1.3-1.1h-1.6v6h-0.7L33.9,61.5z"
   id="path20" />
<path
   class="st1"
   d="M39.1,61.5h0.7V68h-0.7V61.5z"
   id="path22" />
<path
   class="st1"
   d="M46.3,67.9c-0.6,0.1-1.2,0.2-1.8,0.2c-2.5,0-3.6-1.6-3.6-3.2c-0.2-1.8,1.1-3.4,2.9-3.5c0.2,0,0.4,0,0.7,0  c0.6,0,1.1,0.1,1.7,0.2l0.1,0.6c-0.6-0.2-1.2-0.3-1.8-0.3c-0.9,0-2.9,0.3-2.9,3c-0.1,1.4,1,2.7,2.5,2.8c0.1,0,0.3,0,0.4,0  c0.6,0,1.3-0.1,1.9-0.3L46.3,67.9z"
   id="path24" />
<path
   class="st1"
   d="M54.1,64.9c0,1.6-1,3.2-3.6,3.2c-2.6,0-3.6-1.6-3.6-3.2c-0.2-1.8,1.1-3.4,2.9-3.5c0.2,0,0.4,0,0.7,0  c1.8-0.2,3.4,1.1,3.6,2.9C54.1,64.5,54.1,64.7,54.1,64.9z M47.6,64.9c-0.1,1.4,1,2.7,2.5,2.8c0.1,0,0.3,0,0.4,0  c1.4,0.2,2.7-0.9,2.9-2.3c0-0.1,0-0.3,0-0.4c0-2.8-2-3-2.9-3C49.6,61.8,47.6,62.1,47.6,64.9L47.6,64.9z"
   id="path26" />
<path
   class="st1"
   d="M55,61.5h0.7v6.1H59V68h-4V61.5z"
   id="path28" />
<path
   class="st1"
   d="M61.6,61.5h0.9l2.7,6.5h-0.7l-1.2-2.9h-2.8L59.2,68h-0.7L61.6,61.5z M63.1,64.6L62,61.9h0l-1.3,2.6L63.1,64.6z"
   id="path30" />
<path
   class="st1"
   d="M39.5,59.6h0.9L39.5,61h-0.5L39.5,59.6z"
   id="path32" />
<metadata
   id="metadata143"><rdf:RDF><cc:Work
       rdf:about=""><dc:title>lapisa-agricola-b</dc:title></cc:Work></rdf:RDF></metadata></svg>
