<?xml version="1.0" encoding="UTF-8" standalone="no"?>
<!-- Generator: Adobe Illustrator 12.0.0, SVG Export Plug-In . SVG Version: 6.00 Build 51448)  -->
<svg xmlns:rdf="http://www.w3.org/1999/02/22-rdf-syntax-ns#" xmlns="http://www.w3.org/2000/svg" xmlns:cc="http://web.resource.org/cc/" xmlns:xlink="http://www.w3.org/1999/xlink" xmlns:dc="http://purl.org/dc/elements/1.1/" xmlns:svg="http://www.w3.org/2000/svg" xmlns:inkscape="http://www.inkscape.org/namespaces/inkscape" xmlns:sodipodi="http://sodipodi.sourceforge.net/DTD/sodipodi-0.dtd" xmlns:ns1="http://sozi.baierouge.fr" id="Layer_1" xml:space="preserve" overflow="visible" viewBox="0 0 539 692" version="1.1" enable-background="new 0 0 539 692">
<linearGradient id="XMLID_7_" y2="680.51" gradientUnits="userSpaceOnUse" x2="427.65" y1="360.1" x1="107.25">
	<stop style="stop-color:#FFFFFF" offset="0"/>
	<stop style="stop-color:#9D9FA1" offset="1"/>
</linearGradient>
<path d="m518.9 563.32c0 144.91-502.9 144.91-502.9 0s112.58-262.38 251.45-262.38 251.45 117.47 251.45 262.38z" fill="url(#XMLID_7_)"/>
<g>
	<g>
		<linearGradient id="XMLID_8_" y2="492.23" gradientUnits="userSpaceOnUse" x2="208.83" y1="611.5" x1="328.11">
			<stop style="stop-color:#971B1E" offset="0"/>
			<stop style="stop-color:#ED1C24" offset="1"/>
		</linearGradient>
		<path d="m309.36 594.82c0 59.494-25.835 55.246-40.891 55.246-15.051 0-40.881 4.248-40.881-55.246 0-59.527 25.83-160.27 40.881-160.27 15.05 0 40.89 100.75 40.89 160.27z" fill="url(#XMLID_8_)"/>
	</g>
</g>
<g>
	<g>
		<linearGradient id="XMLID_9_" y2="350.71" gradientUnits="userSpaceOnUse" x2="238.43" y1="410.79" x1="298.51">
			<stop style="stop-color:#971B1E" offset="0"/>
			<stop style="stop-color:#ED1C24" offset="1"/>
		</linearGradient>
		<path d="m309.36 370.8c0-23.694-25.835-22.004-40.891-22.004-15.051 0-40.881-1.689-40.881 22.004 0 23.715 25.83 63.845 40.881 63.845 15.05 0.01 40.89-40.12 40.89-63.84z" fill="url(#XMLID_9_)"/>
	</g>
</g>
<g>
	<g>
		<g>
			<linearGradient id="XMLID_10_" y2="679.87" gradientUnits="userSpaceOnUse" x2="427.65" y1="359.47" x1="107.25">
				<stop style="stop-color:#FFFFFF" offset="0"/>
				<stop style="stop-color:#28903A" offset="1"/>
			</linearGradient>
			<path d="m366.22 321.32l-97.263 340.54-100.12-340.61c-89.855 40.01-152.84 133.04-152.84 241.42 0 144.91 502.9 144.91 502.9 0 0-108.32-62.91-201.3-152.68-241.35z" fill="url(#XMLID_10_)"/>
		</g>
	</g>
</g>
<g>
	<g>
		<linearGradient id="XMLID_11_" y2="69.827" gradientUnits="userSpaceOnUse" x2="146.31" y1="312.11" x1="388.59">
			<stop style="stop-color:#D6A477" offset="0"/>
			<stop style="stop-color:#E4C3A8" offset="1"/>
		</linearGradient>
		<ellipse cy="190.96" cx="267.45" rx="167.63" ry="174.92" fill="url(#XMLID_11_)"/>
	</g>
</g>
<g>
	<g>
		<linearGradient id="XMLID_12_" y2="25.824" gradientUnits="userSpaceOnUse" x2="177.45" y1="270.09" x1="421.72">
			<stop style="stop-color:#967348" offset="0"/>
			<stop style="stop-color:#D6A477" offset="1"/>
		</linearGradient>
		<path d="m435.08 256.73c-23.312 7.08 0-196.57-228.53-116.11-6.216 0.548-15.984-20.483-64.827-14.869-6.176 0.71-23.953 12.52-30.142 13.134-19.804 1.846-9.902-20.303-4.057-31.974 2.946-6.582 6.569-12.954 10.807-19.049 29.664-42.667 89.443-71.822 158.34-71.822 98.444 0 176.63 43.73 158.4 240.52" fill="url(#XMLID_12_)"/>
	</g>
</g>
<metadata><rdf:RDF><cc:Work><dc:format>image/svg+xml</dc:format><dc:type rdf:resource="http://purl.org/dc/dcmitype/StillImage"/><cc:license rdf:resource="http://creativecommons.org/licenses/publicdomain/"/><dc:publisher><cc:Agent rdf:about="http://openclipart.org/"><dc:title>Openclipart</dc:title></cc:Agent></dc:publisher><dc:title>Business Person</dc:title><dc:date>2007-09-18T01:09:12</dc:date><dc:description>Business person with tie</dc:description><dc:source>https://openclipart.org/detail/5578/business-person-by-msewtz</dc:source><dc:creator><cc:Agent><dc:title>msewtz</dc:title></cc:Agent></dc:creator><dc:subject><rdf:Bag><rdf:li>business</rdf:li><rdf:li>man</rdf:li><rdf:li>people</rdf:li></rdf:Bag></dc:subject></cc:Work><cc:License rdf:about="http://creativecommons.org/licenses/publicdomain/"><cc:permits rdf:resource="http://creativecommons.org/ns#Reproduction"/><cc:permits rdf:resource="http://creativecommons.org/ns#Distribution"/><cc:permits rdf:resource="http://creativecommons.org/ns#DerivativeWorks"/></cc:License></rdf:RDF></metadata></svg>